<mxfile host="65bd71144e">
    <diagram id="6gfDzhR8UG0JMTbnyaS-" name="Page-1">
        <mxGraphModel dx="1554" dy="606" grid="1" gridSize="10" guides="1" tooltips="1" connect="1" arrows="1" fold="1" page="1" pageScale="1" pageWidth="850" pageHeight="1100" math="0" shadow="0">
            <root>
                <mxCell id="0"/>
                <mxCell id="1" parent="0"/>
                <mxCell id="16" value="Empleado" style="rounded=0;whiteSpace=wrap;html=1;fillColor=#e1d5e7;strokeColor=#9673a6;" parent="1" vertex="1">
                    <mxGeometry y="160" width="120" height="40" as="geometry"/>
                </mxCell>
                <mxCell id="45" style="edgeStyle=none;html=1;entryX=0.5;entryY=0;entryDx=0;entryDy=0;strokeColor=#5C068C;endArrow=none;endFill=0;exitX=0;exitY=0.5;exitDx=0;exitDy=0;" parent="1" source="69" target="39" edge="1">
                    <mxGeometry relative="1" as="geometry">
                        <mxPoint x="40" y="310" as="sourcePoint"/>
                    </mxGeometry>
                </mxCell>
                <mxCell id="47" style="edgeStyle=none;html=1;exitX=0;exitY=0.75;exitDx=0;exitDy=0;entryX=0.5;entryY=0;entryDx=0;entryDy=0;strokeColor=#5C068C;endArrow=none;endFill=0;startArrow=none;" parent="1" source="69" target="40" edge="1">
                    <mxGeometry relative="1" as="geometry">
                        <mxPoint x="140" y="360" as="sourcePoint"/>
                    </mxGeometry>
                </mxCell>
                <mxCell id="46" style="edgeStyle=none;html=1;exitX=0;exitY=0.25;exitDx=0;exitDy=0;entryX=0.5;entryY=0;entryDx=0;entryDy=0;strokeColor=#5C068C;endArrow=none;endFill=0;" parent="1" source="69" target="42" edge="1">
                    <mxGeometry relative="1" as="geometry">
                        <mxPoint x="-180" y="360" as="sourcePoint"/>
                    </mxGeometry>
                </mxCell>
                <mxCell id="39" value="Técnico" style="rounded=0;whiteSpace=wrap;html=1;fillColor=#e1d5e7;strokeColor=#9673a6;" parent="1" vertex="1">
                    <mxGeometry y="360" width="120" height="40" as="geometry"/>
                </mxCell>
                <mxCell id="40" value="Científico" style="rounded=0;whiteSpace=wrap;html=1;fillColor=#e1d5e7;strokeColor=#9673a6;" parent="1" vertex="1">
                    <mxGeometry x="160" y="360" width="120" height="40" as="geometry"/>
                </mxCell>
                <mxCell id="42" value="Astronauta" style="rounded=0;whiteSpace=wrap;html=1;fillColor=#e1d5e7;strokeColor=#9673a6;" parent="1" vertex="1">
                    <mxGeometry x="-160" y="360" width="120" height="40" as="geometry"/>
                </mxCell>
                <mxCell id="72" style="edgeStyle=none;html=1;exitX=0.5;exitY=1;exitDx=0;exitDy=0;entryX=0;entryY=0.5;entryDx=0;entryDy=0;endArrow=none;endFill=0;strokeColor=#5C068C;" parent="1" source="16" target="69" edge="1">
                    <mxGeometry relative="1" as="geometry">
                        <mxPoint x="60" y="240" as="sourcePoint"/>
                    </mxGeometry>
                </mxCell>
                <mxCell id="69" value="" style="triangle;whiteSpace=wrap;html=1;rotation=90;fillColor=#e1d5e7;strokeColor=#9673a6;" parent="1" vertex="1">
                    <mxGeometry x="40" y="240" width="40" height="120" as="geometry"/>
                </mxCell>
                <mxCell id="74" style="edgeStyle=none;html=1;exitX=0;exitY=0.5;exitDx=0;exitDy=0;strokeColor=#5C068C;endArrow=none;endFill=0;" parent="1" source="73" target="69" edge="1">
                    <mxGeometry relative="1" as="geometry"/>
                </mxCell>
                <mxCell id="73" value="Tipo" style="ellipse;whiteSpace=wrap;html=1;aspect=fixed;fillColor=#e1d5e7;strokeColor=#9673a6;verticalAlign=middle;labelPosition=right;verticalLabelPosition=middle;align=left;" parent="1" vertex="1">
                    <mxGeometry x="160" y="280" width="40" height="40" as="geometry"/>
                </mxCell>
                <mxCell id="75" value="" style="verticalLabelPosition=bottom;verticalAlign=top;html=1;shape=mxgraph.basic.arc;startAngle=0.5948432962553827;endAngle=0.902545905891409;fontColor=#5C068C;rotation=-90;strokeColor=#5C068C;" vertex="1" parent="1">
                    <mxGeometry x="10" y="170" width="100" height="240" as="geometry"/>
                </mxCell>
            </root>
        </mxGraphModel>
    </diagram>
</mxfile>